<svg width="32" height="32" viewBox="0 0 32 32" fill="none" xmlns="http://www.w3.org/2000/svg">
<path d="M23.12 7.28033C22.8035 7.28033 22.4942 7.37416 22.231 7.54997C21.9679 7.72578 21.7629 7.97567 21.6418 8.26803C21.5207 8.56039 21.489 8.8821 21.5507 9.19247C21.6124 9.50284 21.7648 9.78793 21.9886 10.0117C22.2124 10.2355 22.4974 10.3878 22.8078 10.4496C23.1182 10.5113 23.4399 10.4796 23.7323 10.3585C24.0246 10.2374 24.2745 10.0324 24.4503 9.76924C24.6261 9.50612 24.72 9.19678 24.72 8.88033C24.72 8.45598 24.5514 8.04901 24.2513 7.74895C23.9513 7.4489 23.5443 7.28033 23.12 7.28033ZM29.2533 10.507C29.2274 9.40072 29.0202 8.3062 28.64 7.26699C28.3009 6.37784 27.7733 5.5727 27.0933 4.90699C26.4331 4.22356 25.626 3.69923 24.7333 3.37366C23.6968 2.98187 22.6011 2.76994 21.4933 2.74699C20.08 2.66699 19.6266 2.66699 16 2.66699C12.3733 2.66699 11.92 2.66699 10.5066 2.74699C9.39883 2.76994 8.30308 2.98187 7.26663 3.37366C6.37553 3.70252 5.5692 4.22641 4.90663 4.90699C4.22319 5.56723 3.69886 6.37424 3.37329 7.26699C2.98151 8.30345 2.76957 9.3992 2.74663 10.507C2.66663 11.9203 2.66663 12.3737 2.66663 16.0003C2.66663 19.627 2.66663 20.0803 2.74663 21.4937C2.76957 22.6015 2.98151 23.6972 3.37329 24.7337C3.69886 25.6264 4.22319 26.4334 4.90663 27.0937C5.5692 27.7742 6.37553 28.2981 7.26663 28.627C8.30308 29.0188 9.39883 29.2307 10.5066 29.2537C11.92 29.3337 12.3733 29.3337 16 29.3337C19.6266 29.3337 20.08 29.3337 21.4933 29.2537C22.6011 29.2307 23.6968 29.0188 24.7333 28.627C25.626 28.3014 26.4331 27.7771 27.0933 27.0937C27.7763 26.4304 28.3044 25.6246 28.64 24.7337C29.0202 23.6945 29.2274 22.5999 29.2533 21.4937C29.2533 20.0803 29.3333 19.627 29.3333 16.0003C29.3333 12.3737 29.3333 11.9203 29.2533 10.507ZM26.8533 21.3337C26.8436 22.18 26.6903 23.0186 26.4 23.8137C26.1871 24.3939 25.8451 24.9182 25.4 25.347C24.9675 25.7877 24.4443 26.1289 23.8666 26.347C23.0716 26.6373 22.233 26.7906 21.3866 26.8003C20.0533 26.867 19.56 26.8803 16.0533 26.8803C12.5466 26.8803 12.0533 26.8803 10.72 26.8003C9.84115 26.8168 8.96609 26.6815 8.13329 26.4003C7.581 26.1711 7.08177 25.8307 6.66663 25.4003C6.22408 24.972 5.88642 24.4472 5.67996 23.867C5.35443 23.0605 5.17388 22.2029 5.14663 21.3337C5.14663 20.0003 5.06663 19.507 5.06663 16.0003C5.06663 12.4937 5.06663 12.0003 5.14663 10.667C5.1526 9.80173 5.31056 8.94425 5.61329 8.13366C5.84802 7.57087 6.20831 7.0692 6.66663 6.66699C7.07171 6.20855 7.57234 5.84445 8.13329 5.60033C8.94603 5.30705 9.80262 5.15376 10.6666 5.14699C12 5.14699 12.4933 5.06699 16 5.06699C19.5066 5.06699 20 5.06699 21.3333 5.14699C22.1797 5.1567 23.0182 5.30999 23.8133 5.60033C24.4192 5.8252 24.963 6.19079 25.4 6.66699C25.8369 7.07656 26.1783 7.5773 26.4 8.13366C26.6963 8.94557 26.8497 9.8027 26.8533 10.667C26.92 12.0003 26.9333 12.4937 26.9333 16.0003C26.9333 19.507 26.92 20.0003 26.8533 21.3337ZM16 9.16033C14.6477 9.16296 13.3266 9.56636 12.2035 10.3195C11.0804 11.0727 10.2058 12.1419 9.69014 13.392C9.17448 14.6421 9.04093 16.0169 9.30635 17.3429C9.57178 18.6688 10.2243 19.8864 11.1814 20.8416C12.1385 21.7969 13.3573 22.447 14.6838 22.7099C16.0102 22.9727 17.3848 22.8365 18.6339 22.3184C19.883 21.8003 20.9505 20.9236 21.7015 19.799C22.4525 18.6745 22.8533 17.3526 22.8533 16.0003C22.8551 15.1005 22.6789 14.2091 22.3349 13.3776C21.991 12.5461 21.486 11.7907 20.8491 11.1551C20.2122 10.5194 19.4559 10.0159 18.6237 9.67356C17.7915 9.33123 16.8998 9.15681 16 9.16033ZM16 20.4403C15.1218 20.4403 14.2634 20.1799 13.5332 19.6921C12.8031 19.2042 12.234 18.5107 11.8979 17.6994C11.5619 16.8881 11.474 15.9954 11.6453 15.1341C11.8166 14.2728 12.2395 13.4817 12.8604 12.8608C13.4814 12.2398 14.2725 11.817 15.1338 11.6456C15.995 11.4743 16.8878 11.5622 17.6991 11.8983C18.5104 12.2344 19.2038 12.8034 19.6917 13.5336C20.1796 14.2637 20.44 15.1222 20.44 16.0003C20.44 16.5834 20.3251 17.1608 20.102 17.6994C19.8789 18.2381 19.5518 18.7276 19.1395 19.1399C18.7272 19.5522 18.2378 19.8792 17.6991 20.1024C17.1604 20.3255 16.583 20.4403 16 20.4403Z" fill="white"/>
</svg>
