<svg width="32" height="29" viewBox="0 0 32 29" fill="none" xmlns="http://www.w3.org/2000/svg">
<path d="M2.04027 0H29.9597C31.0841 0 32 0.817871 32 1.83453V26.9386C32 27.9496 31.0904 28.7732 29.9597 28.7732H2.04027C0.91591 28.7732 0 27.9553 0 26.9386V1.83453C0 0.817871 0.909593 0 2.04027 0Z" fill="#1182B4"/>
<path d="M25.7528 8.82049C25.0516 9.11016 24.2936 9.29759 23.5104 9.38846C24.3126 8.95113 24.9316 8.26389 25.2222 7.43466C24.4642 7.8436 23.6241 8.13326 22.7397 8.29797C22.0197 7.59369 21.009 7.18475 19.8594 7.18475C17.718 7.18475 15.9683 8.75802 15.9683 10.7005C15.9683 10.9788 16.0062 11.2514 16.0694 11.5013C12.8226 11.3536 9.93595 9.95075 8.00938 7.82655C7.6746 8.3434 7.47879 8.95113 7.47879 9.58725C7.47879 10.8084 8.16098 11.8932 9.22217 12.5066C8.57788 12.5066 7.97148 12.3419 7.4472 12.0977C7.4472 12.0977 7.4472 12.0977 7.4472 12.1204C7.4472 13.8243 8.79896 15.2499 10.5866 15.5736C10.2581 15.6531 9.91069 15.6986 9.55696 15.6986C9.31061 15.6986 9.06426 15.6758 8.83054 15.6304C9.32324 17.0162 10.7571 18.0499 12.4752 18.0727C11.1424 19.0212 9.45589 19.5835 7.61775 19.5835C7.30824 19.5835 6.99872 19.5664 6.68921 19.5323C8.41996 20.532 10.4855 21.117 12.69 21.117C19.872 21.117 23.8262 15.7554 23.8262 11.1037C23.8262 10.9504 23.8262 10.8027 23.8199 10.6437C24.5652 10.1552 25.2222 9.53045 25.7528 8.82049Z" fill="white"/>
</svg>
