<svg width="32" height="29" viewBox="0 0 32 29" fill="none" xmlns="http://www.w3.org/2000/svg">
<path d="M2.04027 0H29.9597C31.0841 0 32 0.817871 32 1.83453V26.9386C32 27.9496 31.0904 28.7732 29.9597 28.7732H2.04027C0.91591 28.7732 0 27.9553 0 26.9386V1.83453C0 0.817871 0.909593 0 2.04027 0Z" fill="#3D537E"/>
<path d="M20.927 3.86777V7.82081H18.7288C17.9708 7.82081 17.6297 8.62164 17.6297 9.3032V11.7739H20.927V15.7269H17.6297V23.633H13.2333V15.7269H9.93604V11.7739H13.2333V7.82081C13.2333 5.63982 15.2041 3.86777 17.6297 3.86777H20.927Z" fill="white"/>
</svg>
