<svg width="32" height="29" viewBox="0 0 32 29" fill="none" xmlns="http://www.w3.org/2000/svg">
<path d="M2.04027 0H29.9597C31.0841 0 32 0.817871 32 1.83453V26.9386C32 27.9496 31.0904 28.7732 29.9597 28.7732H2.04027C0.91591 28.7732 0 27.9553 0 26.9386V1.83453C0 0.817871 0.909593 0 2.04027 0Z" fill="#39BB59"/>
<path d="M20.5731 15.619C20.8069 15.7269 20.9585 15.7894 21.0027 15.8689C21.0595 15.9598 21.0406 16.3801 20.8069 16.8628C20.6174 17.3342 19.6509 17.7886 19.2214 17.8056C18.7919 17.8227 18.7792 18.1067 16.4547 17.1922C14.1302 16.2778 12.7279 14.04 12.6142 13.898C12.5005 13.756 11.7172 12.7394 11.7551 11.7057C11.7994 10.6834 12.3994 10.1949 12.6458 9.99043C12.8669 9.77461 13.1195 9.74621 13.2838 9.7746H13.7259C13.8649 9.7746 14.0607 9.72349 14.2376 10.1551L14.8819 11.7284C14.9387 11.8363 14.9766 11.9613 14.8882 12.0976L14.6355 12.444L14.2692 12.7962C14.1555 12.8984 14.0291 13.0063 14.1555 13.2165C14.2692 13.4323 14.7366 14.1309 15.3872 14.7102C16.2399 15.4486 16.9853 15.6928 17.2064 15.8007C17.4275 15.92 17.5728 15.903 17.7117 15.7666L18.4697 14.9772C18.6466 14.767 18.7982 14.8181 19.0129 14.8863L20.5731 15.619ZM16.1326 5.57166C21.2932 5.57166 25.4748 9.33159 25.4748 13.9719C25.4748 18.6122 21.2932 22.3721 16.1326 22.3721C14.2944 22.3721 12.5826 21.895 11.1361 21.0715L6.79028 22.3721L8.23679 18.4645C7.32088 17.1638 6.79028 15.6247 6.79028 13.9719C6.79028 9.33159 10.9782 5.57166 16.1326 5.57166ZM16.1326 7.25284C12.0078 7.25284 8.66 10.2631 8.66 13.9719C8.66 15.4145 9.16533 16.7549 10.0244 17.8454L9.12743 20.2706L11.8246 19.4641C13.0374 20.2365 14.5218 20.6909 16.1326 20.6909C20.2573 20.6909 23.6051 17.6807 23.6051 13.9719C23.6114 10.2574 20.2636 7.25284 16.1326 7.25284Z" fill="white"/>
</svg>
