<svg width="32" height="29" viewBox="0 0 32 29" fill="none" xmlns="http://www.w3.org/2000/svg">
<path d="M2.04027 0H29.9597C31.0841 0 32 0.817871 32 1.83453V26.9386C32 27.9496 31.0904 28.7732 29.9597 28.7732H2.04027C0.91591 28.7732 0 27.9553 0 26.9386V1.83453C0 0.817871 0.909593 0 2.04027 0Z" fill="#007FFF"/>
<path fill-rule="evenodd" clip-rule="evenodd" d="M15.9685 5.87845C10.8079 5.87845 6.63257 9.36008 6.63257 13.6539C6.63257 16.1018 7.99064 18.2828 10.113 19.7084V22.6732L13.2903 21.1056C14.1367 21.3158 15.04 21.4294 15.9685 21.4294C21.1292 21.4294 25.3045 17.9477 25.3045 13.6539C25.3045 9.36008 21.1292 5.87845 15.9685 5.87845ZM16.8971 16.3517L14.5157 14.0685L9.873 16.3517L14.9768 11.4786L17.415 13.7618L21.9946 11.4786L16.8971 16.3517Z" fill="white"/>
</svg>
