<svg width="107" height="33" viewBox="0 0 107 33" fill="none" xmlns="http://www.w3.org/2000/svg">
<path d="M97.7592 0H8.45951C8.13995 0 7.82038 0 7.49195 0C7.21677 0 6.95047 0.00813159 6.67529 0.00813159C6.08055 0.0162632 5.48581 0.0650527 4.89995 0.1545C4.31408 0.243948 3.74597 0.414711 3.21337 0.66679C2.68077 0.910738 2.19255 1.236 1.77534 1.62632C1.34926 2.0085 0.994192 2.45574 0.72789 2.94364C0.461589 3.43153 0.275178 3.95195 0.168658 4.48864C0.0710137 5.02532 0.0177534 5.57014 0.00887671 6.11496C0.00887671 6.36704 0 6.61912 0 6.86306V25.6552C0 25.9073 0.00887671 26.1512 0.0177534 26.4033C0.0266301 26.9481 0.0798904 27.4929 0.177534 28.0296C0.275178 28.5663 0.461589 29.0948 0.736767 29.5746C1.00307 30.0625 1.35814 30.5016 1.78422 30.8838C2.20142 31.2741 2.68964 31.5912 3.22225 31.8433C3.75485 32.0873 4.32296 32.2662 4.90882 32.3556C5.49469 32.4451 6.08943 32.4938 6.68417 32.502C6.95047 32.5182 7.21677 32.5264 7.49195 32.5264C7.82038 32.5264 8.13995 32.5264 8.45951 32.5264H97.7592C98.0788 32.5264 98.3984 32.5264 98.7179 32.5264C98.9842 32.5264 99.2683 32.5264 99.5346 32.5182C100.129 32.5101 100.724 32.4613 101.31 32.3719C101.896 32.2824 102.473 32.1035 103.005 31.8596C103.538 31.6156 104.017 31.2904 104.443 30.9C104.869 30.5179 105.216 30.0706 105.491 29.5909C105.757 29.103 105.944 28.5825 106.041 28.0459C106.139 27.5092 106.192 26.9644 106.21 26.4195C106.21 26.1675 106.21 25.9235 106.21 25.6714C106.219 25.3787 106.219 25.086 106.219 24.7851V7.75754C106.219 7.45667 106.219 7.16393 106.21 6.87119C106.21 6.61912 106.21 6.37517 106.21 6.12309C106.201 5.57827 106.148 5.03346 106.041 4.49677C105.944 3.96009 105.757 3.43966 105.491 2.95177C104.94 1.97598 104.071 1.17908 103.005 0.674922C102.473 0.430974 101.905 0.260211 101.31 0.162632C100.724 0.0731843 100.129 0.0243948 99.5346 0.0162632C99.2683 0.0162632 98.9842 0.00813159 98.7179 0.00813159C98.4072 0 98.0788 0 97.7592 0Z" fill="#A6A6A6"/>
<path d="M7.4919 31.821C7.22559 31.821 6.95929 31.821 6.69299 31.8128C6.13376 31.8047 5.5834 31.764 5.03304 31.6827C4.51819 31.6014 4.02997 31.455 3.55951 31.2355C3.09792 31.0241 2.68071 30.7395 2.31677 30.4061C1.95282 30.0727 1.64214 29.6905 1.41134 29.2676C1.18055 28.8448 1.01189 28.3894 0.931998 27.9178C0.843231 27.4136 0.78997 26.9013 0.781094 26.389C0.772217 26.2183 0.772217 25.6491 0.772217 25.6491V6.86497C0.772217 6.86497 0.781094 6.30389 0.781094 6.14126C0.798847 5.62896 0.843231 5.1248 0.931998 4.62064C1.02076 4.14901 1.18055 3.69363 1.42022 3.27079C1.65101 2.84794 1.95282 2.46576 2.32564 2.13236C2.68071 1.79896 3.1068 1.51435 3.55951 1.30293C4.0211 1.09151 4.51819 0.937009 5.02417 0.863824C5.57452 0.782507 6.13376 0.733718 6.69299 0.733718L7.4919 0.725586H98.718L99.5258 0.733718C100.076 0.741849 100.626 0.782507 101.177 0.863824C101.692 0.94514 102.189 1.09151 102.659 1.31106C103.582 1.74204 104.328 2.43323 104.807 3.27892C105.038 3.70177 105.198 4.15714 105.287 4.62064C105.376 5.1248 105.429 5.6371 105.438 6.15752C105.438 6.38521 105.438 6.63729 105.438 6.88124C105.447 7.19024 105.447 7.47485 105.447 7.76758V24.7871C105.447 25.0798 105.447 25.3726 105.438 25.6653C105.438 25.9337 105.438 26.1695 105.438 26.4216C105.429 26.9257 105.376 27.4299 105.287 27.9259C105.207 28.3976 105.038 28.8529 104.807 29.2839C104.577 29.6986 104.266 30.0808 103.902 30.4142C103.538 30.7476 103.121 31.0322 102.659 31.2436C102.189 31.4632 101.692 31.6095 101.177 31.6909C100.626 31.7722 100.076 31.821 99.5169 31.821C99.2595 31.8291 98.9843 31.8291 98.718 31.8291H97.7593L7.4919 31.821Z" fill="black"/>
<path d="M21.9876 16.5096C22.0054 15.1272 22.7954 13.8587 24.0825 13.1349C23.2659 12.0697 21.9521 11.4191 20.5407 11.3785C19.0494 11.2321 17.6025 12.1917 16.848 12.1917C16.0757 12.1917 14.904 11.3866 13.6435 11.411C11.9835 11.4598 10.4834 12.3055 9.6756 13.631C7.96239 16.3551 9.24064 20.356 10.8828 22.5597C11.7084 23.6412 12.6671 24.8447 13.9275 24.7959C15.1614 24.7471 15.623 24.0803 17.1054 24.0803C18.579 24.0803 19.005 24.7959 20.2922 24.7715C21.6148 24.7553 22.4492 23.69 23.2392 22.6003C23.834 21.836 24.2867 20.9821 24.5885 20.0876C23.0084 19.4777 21.9876 18.0709 21.9876 16.5096Z" fill="white"/>
<path d="M19.5643 9.93016C20.2833 9.14114 20.6384 8.11622 20.5496 7.09131C19.4489 7.19705 18.428 7.67697 17.7001 8.44159C16.9811 9.18994 16.6172 10.1742 16.6882 11.1747C17.8067 11.1828 18.863 10.7273 19.5643 9.93016Z" fill="white"/>
<path d="M37.5485 22.0724H33.3498L32.3378 24.8047H30.5625L34.5393 14.7051H36.3856L40.3624 24.8047H38.5516L37.5485 22.0724ZM33.7848 20.812H37.1135L35.4713 16.3802H35.427L33.7848 20.812Z" fill="white"/>
<path d="M48.964 21.1184C48.964 23.4032 47.6236 24.8749 45.6086 24.8749C44.57 24.9237 43.5847 24.4277 43.0787 23.5902H43.0432V27.2329H41.3921V17.435H42.9899V18.6628H43.0165C43.5403 17.8334 44.5256 17.3293 45.5731 17.3618C47.6236 17.3618 48.964 18.8336 48.964 21.1184ZM47.2685 21.1184C47.2685 19.6304 46.4252 18.6465 45.147 18.6465C43.8865 18.6465 43.0343 19.6467 43.0343 21.1184C43.0343 22.5982 43.8865 23.5983 45.147 23.5983C46.4252 23.5983 47.2685 22.6226 47.2685 21.1184Z" fill="white"/>
<path d="M57.8052 21.1184C57.8052 23.4032 56.4648 24.8749 54.4498 24.8749C53.4112 24.9237 52.4259 24.4277 51.9199 23.5902H51.8844V27.2329H50.2422V17.435H51.84V18.6628H51.8666C52.3904 17.8334 53.3757 17.3293 54.4231 17.3618C56.4648 17.3618 57.8052 18.8336 57.8052 21.1184ZM56.1097 21.1184C56.1097 19.6304 55.2664 18.6465 53.9882 18.6465C52.7277 18.6465 51.8755 19.6467 51.8755 21.1184C51.8755 22.5982 52.7277 23.5983 53.9882 23.5983C55.2753 23.5983 56.1097 22.6226 56.1097 21.1184Z" fill="white"/>
<path d="M63.6548 21.9894C63.7791 22.9895 64.8354 23.6481 66.2912 23.6481C67.6848 23.6481 68.679 22.9895 68.679 22.0869C68.679 21.3064 68.0754 20.8348 66.6463 20.5095L65.2171 20.1924C63.1932 19.7452 62.2523 18.8752 62.2523 17.4685C62.2523 15.7285 63.9122 14.5332 66.2646 14.5332C68.5902 14.5332 70.188 15.7285 70.2413 17.4685H68.5725C68.4748 16.4603 67.5605 15.8504 66.2379 15.8504C64.9153 15.8504 64.001 16.4684 64.001 17.3628C64.001 18.0783 64.578 18.493 65.9983 18.8183L67.2144 19.0947C69.4779 19.5826 70.4188 20.4201 70.4188 21.8918C70.4188 23.7782 68.7766 24.9653 66.1669 24.9653C63.7258 24.9653 62.0748 23.8107 61.9683 21.9812L63.6548 21.9894Z" fill="white"/>
<path d="M73.9873 15.6958V17.4359H75.5142V18.6313H73.9873V22.6889C73.9873 23.3232 74.2892 23.6159 74.9638 23.6159C75.1413 23.6159 75.3277 23.5996 75.5053 23.5834V24.7706C75.2035 24.8194 74.8928 24.8438 74.591 24.8438C72.9665 24.8438 72.3274 24.2827 72.3274 22.8597V18.6394H71.1556V17.4441H72.3274V15.6958H73.9873Z" fill="white"/>
<path d="M76.4019 21.1187C76.4019 18.8009 77.8931 17.3452 80.21 17.3452C82.5445 17.3452 84.0181 18.8009 84.0181 21.1187C84.0181 23.4445 82.5445 24.8921 80.21 24.8921C77.8754 24.8921 76.4019 23.4445 76.4019 21.1187ZM82.3404 21.1187C82.3404 19.5328 81.5415 18.5895 80.21 18.5895C78.8785 18.5895 78.0796 19.5328 78.0796 21.1187C78.0796 22.7126 78.8696 23.6478 80.21 23.6478C81.5503 23.6478 82.3404 22.7126 82.3404 21.1187Z" fill="white"/>
<path d="M85.3851 17.4351H86.9563V18.6875H86.9918C87.2137 17.8824 88.0215 17.3294 88.9269 17.3538C89.1133 17.3538 89.3086 17.3701 89.495 17.4107V18.8257C89.2553 18.7606 89.0068 18.7281 88.7582 18.7362C87.8439 18.7037 87.0628 19.3543 87.0273 20.2C87.0273 20.2813 87.0273 20.3545 87.0362 20.4358V24.8027H85.3851V17.4351Z" fill="white"/>
<path d="M97.0935 22.6394C96.8716 23.9731 95.4513 24.8921 93.6316 24.8921C91.297 24.8921 89.8412 23.4608 89.8412 21.1512C89.8412 18.8416 91.297 17.3452 93.5605 17.3452C95.7797 17.3452 97.1823 18.744 97.1823 20.9804V21.5009H91.51V21.5903C91.4124 22.6475 92.2557 23.5746 93.4096 23.6722C93.4984 23.6804 93.5872 23.6804 93.6671 23.6804C94.466 23.7454 95.2205 23.3307 95.5223 22.6475L97.0935 22.6394ZM91.5189 20.4355H95.54C95.6022 19.4596 94.7855 18.622 93.7203 18.5732C93.6671 18.5732 93.6227 18.5732 93.5694 18.5732C92.4421 18.5651 91.5278 19.3946 91.5189 20.4274V20.4355Z" fill="white"/>
<path d="M33.5806 7.10088C34.8678 7.01956 35.9951 7.9059 36.0839 9.08497C36.0928 9.22321 36.0928 9.36957 36.075 9.50781C36.075 11.0609 35.1607 11.9473 33.5806 11.9473H31.6632V7.10088H33.5806ZM32.4888 11.2642H33.4918C34.4062 11.313 35.1962 10.6706 35.2495 9.83307C35.2583 9.72736 35.2495 9.62165 35.2317 9.51594C35.356 8.67839 34.7169 7.9059 33.8025 7.79206C33.696 7.7758 33.5895 7.7758 33.483 7.78393H32.4888V11.2642Z" fill="white"/>
<path d="M36.9982 10.1162C36.9005 9.16481 37.6639 8.31915 38.7024 8.22158C39.741 8.13213 40.6642 8.83142 40.7707 9.78279C40.7796 9.89663 40.7796 10.0023 40.7707 10.1162C40.8683 11.0675 40.1138 11.9213 39.0664 12.0108C38.0278 12.1002 37.0958 11.4091 36.9982 10.4496C36.9893 10.3438 36.9893 10.23 36.9982 10.1162ZM39.954 10.1162C39.954 9.3193 39.5635 8.85582 38.88 8.85582C38.1965 8.85582 37.8059 9.3193 37.8059 10.1162C37.8059 10.913 38.1876 11.3765 38.88 11.3765C39.5723 11.3765 39.954 10.913 39.954 10.1162Z" fill="white"/>
<path d="M45.7771 11.9531H44.9605L44.135 9.25382H44.0729L43.2473 11.9531H42.4396L41.3389 8.29443H42.1378L42.8568 11.0913H42.9189L43.7444 8.29443H44.4989L45.3244 11.0913H45.3866L46.0967 8.29443H46.8867L45.7771 11.9531Z" fill="white"/>
<path d="M47.801 8.28749H48.5644V8.87305H48.6266C48.8307 8.44201 49.3101 8.18176 49.8161 8.22242C50.5351 8.17363 51.1564 8.6616 51.2097 9.32036C51.2186 9.40982 51.2097 9.49928 51.2008 9.58061V11.9473H50.4108V9.75953C50.4108 9.17397 50.1356 8.88118 49.5497 8.88118C49.0438 8.85679 48.6177 9.21463 48.5911 9.6782C48.5911 9.71887 48.5911 9.76766 48.5911 9.80833V11.9473H47.801V8.28749Z" fill="white"/>
<path d="M52.4525 6.86279H53.2424V11.9546H52.4525V6.86279Z" fill="white"/>
<path d="M54.3431 10.1162C54.2455 9.16481 55.0089 8.31915 56.0475 8.22158C57.0861 8.13213 58.0092 8.83142 58.1158 9.78279C58.1246 9.89663 58.1246 10.0023 58.1158 10.1162C58.2134 11.0675 57.4589 11.9213 56.4114 12.0108C55.364 12.1002 54.4408 11.4091 54.3431 10.4496C54.3254 10.3438 54.3254 10.23 54.3431 10.1162ZM57.2991 10.1162C57.2991 9.3193 56.9085 8.85582 56.225 8.85582C55.5415 8.85582 55.1509 9.3193 55.1509 10.1162C55.1509 10.913 55.5326 11.3765 56.225 11.3765C56.9085 11.3765 57.2991 10.913 57.2991 10.1162Z" fill="white"/>
<path d="M58.9414 10.9139C58.9414 10.2551 59.474 9.8728 60.4238 9.824L61.5067 9.76707V9.44985C61.5067 9.05944 61.2316 8.84797 60.6901 8.84797C60.2463 8.84797 59.9445 8.99437 59.8557 9.25465H59.0923C59.1722 8.62836 59.8202 8.22168 60.7256 8.22168C61.7287 8.22168 62.2968 8.67716 62.2968 9.44985V11.955H61.5334V11.4426H61.4712C61.2138 11.8167 60.7522 12.0363 60.2729 12.0201C59.6071 12.0851 59.0124 11.6378 58.9503 11.0359C58.9414 10.9871 58.9414 10.9546 58.9414 10.9139ZM61.5156 10.6048V10.2958L60.5392 10.3527C59.9888 10.3852 59.7403 10.556 59.7403 10.8814C59.7403 11.2148 60.051 11.4019 60.4771 11.4019C60.9919 11.4507 61.4535 11.101 61.5067 10.6292C61.5067 10.6211 61.5067 10.613 61.5156 10.6048Z" fill="white"/>
<path d="M63.3353 10.1161C63.3353 8.96117 63.9833 8.22918 64.9953 8.22918C65.5012 8.20478 65.9806 8.45691 66.2202 8.87171H66.2824V6.86279H67.0724V11.9542H66.309V11.3767H66.2469C65.9894 11.7834 65.5101 12.0355 64.9953 12.0193C63.9744 12.0111 63.3353 11.2792 63.3353 10.1161ZM64.152 10.1161C64.152 10.8969 64.5514 11.3605 65.2172 11.3605C65.8829 11.3605 66.2912 10.8888 66.2912 10.1161C66.2912 9.35157 65.874 8.87171 65.2172 8.87171C64.5514 8.87984 64.152 9.35157 64.152 10.1161Z" fill="white"/>
<path d="M70.3302 10.1161C70.2325 9.16468 70.996 8.31898 72.0345 8.2214C73.0731 8.12382 73.9963 8.83128 74.1028 9.78269C74.1117 9.89653 74.1117 10.0022 74.1028 10.1161C74.2005 11.0675 73.4459 11.9213 72.3985 12.0108C71.3599 12.1002 70.4278 11.409 70.3302 10.4495C70.3213 10.3438 70.3213 10.2299 70.3302 10.1161ZM73.2862 10.1161C73.2862 9.31918 72.8956 8.85567 72.2121 8.85567C71.5286 8.85567 71.138 9.31918 71.138 10.1161C71.138 10.913 71.5197 11.3765 72.2121 11.3765C72.8956 11.3765 73.2862 10.913 73.2862 10.1161Z" fill="white"/>
<path d="M75.1591 8.28749H75.9225V8.87305H75.9846C76.1888 8.44201 76.6681 8.18176 77.1741 8.22242C77.8931 8.17363 78.5145 8.6616 78.5677 9.32036C78.5766 9.40982 78.5677 9.49928 78.5589 9.58061V11.9473H77.7688V9.75953C77.7688 9.17397 77.4936 8.88118 76.9078 8.88118C76.4018 8.85679 75.9757 9.21463 75.9491 9.6782C75.9491 9.71887 75.9491 9.76766 75.9491 9.80833V11.9473H75.1591V8.28749Z" fill="white"/>
<path d="M83.015 7.37598V8.30319H83.8849V8.91319H83.015V10.8001C83.015 11.1824 83.1837 11.3532 83.5831 11.3532C83.6807 11.3532 83.7872 11.3451 83.8849 11.337V11.9388C83.7429 11.9632 83.6008 11.9714 83.4588 11.9795C82.58 11.9795 82.2339 11.6948 82.2339 10.9872V8.92133H81.6036V8.31132H82.2339V7.37598H83.015Z" fill="white"/>
<path d="M84.9501 6.86279H85.7312V8.87999H85.7934C86.0064 8.4489 86.4946 8.18861 87.0095 8.22115C87.7374 8.18861 88.3588 8.69291 88.3943 9.35989C88.4031 9.43309 88.3943 9.51443 88.3854 9.58764V11.9546H87.5954V9.76658C87.5954 9.18094 87.3024 8.88812 86.7432 8.88812C86.2283 8.84746 85.7756 9.19721 85.7401 9.66898C85.7401 9.71778 85.7401 9.76658 85.7401 9.81538V11.9546H84.9501V6.86279Z" fill="white"/>
<path d="M92.9924 10.9625C92.7704 11.6538 92.0426 12.1011 91.2614 12.0198C90.2584 12.0442 89.424 11.3203 89.3973 10.4013C89.3973 10.3119 89.3973 10.2224 89.4151 10.1329C89.2819 9.20577 89.9921 8.35994 90.9951 8.23795C91.0839 8.22981 91.1727 8.22168 91.2526 8.22168C92.3621 8.22168 93.0367 8.92112 93.0367 10.0679V10.32H90.214V10.3607C90.1607 10.8974 90.5957 11.361 91.1815 11.4098C91.217 11.4098 91.2526 11.4098 91.2792 11.4098C91.6609 11.4505 92.0426 11.2797 92.229 10.9625H92.9924ZM90.2229 9.78321H92.2379C92.2734 9.29523 91.8828 8.87232 91.3502 8.83979C91.3147 8.83979 91.2881 8.83979 91.2526 8.83979C90.6844 8.83165 90.2229 9.24643 90.214 9.76695C90.2229 9.76695 90.2229 9.77508 90.2229 9.78321Z" fill="white"/>
</svg>
