<svg width="118" height="32" viewBox="0 0 118 32" fill="none" xmlns="http://www.w3.org/2000/svg">
<path d="M113.645 31.916H4.77074C2.37551 31.916 0.415771 30.1207 0.415771 27.9265V3.9895C0.415771 1.79528 2.37551 0 4.77074 0H113.645C116.04 0 118 1.79528 118 3.9895V27.9265C118 30.1207 116.04 31.916 113.645 31.916Z" fill="black"/>
<path d="M113.645 0.63832C115.666 0.63832 117.303 2.13837 117.303 3.9895V27.9265C117.303 29.7776 115.666 31.2777 113.645 31.2777H4.77074C2.75004 31.2777 1.11257 29.7776 1.11257 27.9265V3.9895C1.11257 2.13837 2.75004 0.63832 4.77074 0.63832H113.645ZM113.645 0H4.77074C2.37551 0 0.415771 1.79528 0.415771 3.9895V27.9265C0.415771 30.1207 2.37551 31.916 4.77074 31.916H113.645C116.04 31.916 118 30.1207 118 27.9265V3.9895C118 1.79528 116.04 0 113.645 0Z" fill="#A6A6A6"/>
<path d="M41.7183 8.17175C41.7183 8.84209 41.5005 9.37676 41.065 9.76779C40.5773 10.2386 39.9328 10.478 39.1489 10.478C38.3912 10.478 37.7554 10.2386 37.2241 9.75981C36.6928 9.281 36.4315 8.68248 36.4315 7.98022C36.4315 7.26999 36.6928 6.67945 37.2241 6.20064C37.7554 5.72183 38.3912 5.48242 39.1489 5.48242C39.5234 5.48242 39.8805 5.54626 40.2202 5.68193C40.5599 5.81759 40.8299 5.99315 41.0389 6.2166L40.5773 6.63955C40.2289 6.26448 39.7586 6.07296 39.1489 6.07296C38.6002 6.07296 38.1212 6.24852 37.7205 6.60763C37.3199 6.95876 37.1196 7.42161 37.1196 7.9882C37.1196 8.5548 37.3199 9.01765 37.7205 9.36878C38.1212 9.71991 38.6002 9.90345 39.1489 9.90345C39.7325 9.90345 40.2202 9.72789 40.6121 9.36878C40.8647 9.13735 41.0128 8.81017 41.0476 8.3952H39.1489V7.82062H41.6834C41.7008 7.94032 41.7183 8.06003 41.7183 8.17175Z" fill="white" stroke="white" stroke-width="0.2" stroke-miterlimit="10"/>
<path d="M45.7336 6.17696H43.3558V7.69318H45.4985V8.26775H43.3558V9.78398H45.7336V10.3745H42.6852V5.58643H45.7336V6.17696Z" fill="white" stroke="white" stroke-width="0.2" stroke-miterlimit="10"/>
<path d="M48.5644 10.3745H47.8937V6.17696H46.4304V5.58643H50.0189V6.17696H48.5556L48.5644 10.3745Z" fill="white" stroke="white" stroke-width="0.2" stroke-miterlimit="10"/>
<path d="M52.6233 10.3745V5.58643H53.2941V10.3745H52.6233Z" fill="white" stroke="white" stroke-width="0.2" stroke-miterlimit="10"/>
<path d="M56.2727 10.3745H55.6021V6.17696H54.1388V5.58643H57.7273V6.17696H56.264L56.2727 10.3745Z" fill="white" stroke="white" stroke-width="0.2" stroke-miterlimit="10"/>
<path d="M64.5297 9.75051C64.0159 10.2372 63.38 10.4766 62.6136 10.4766C61.8471 10.4766 61.2113 10.2372 60.6974 9.75051C60.1835 9.26381 59.9309 8.67339 59.9309 7.97925C59.9309 7.28511 60.1835 6.68671 60.6974 6.20799C61.2113 5.72129 61.8471 5.48193 62.6136 5.48193C63.3713 5.48193 64.0072 5.72129 64.5297 6.20799C65.0436 6.69469 65.3049 7.28511 65.3049 7.97925C65.2962 8.68137 65.0436 9.27179 64.5297 9.75051ZM61.1938 9.35157C61.5771 9.71061 62.0561 9.88614 62.6136 9.88614C63.171 9.88614 63.65 9.71061 64.0333 9.35157C64.4165 8.99254 64.6168 8.53775 64.6168 7.97925C64.6168 7.42074 64.4252 6.96596 64.0333 6.60692C63.65 6.24788 63.171 6.07235 62.6136 6.07235C62.0561 6.07235 61.5771 6.24788 61.1938 6.60692C60.8106 6.96596 60.6103 7.42074 60.6103 7.97925C60.6103 8.53775 60.8106 8.99254 61.1938 9.35157Z" fill="white" stroke="white" stroke-width="0.2" stroke-miterlimit="10"/>
<path d="M66.2457 10.3745V5.58643H67.0645L69.6078 9.31315H69.6339L69.6078 8.38746V5.58643H70.2784V10.3745H69.5816L66.9251 6.47222H66.899L66.9251 7.39792V10.3745H66.2457Z" fill="white" stroke="white" stroke-width="0.2" stroke-miterlimit="10"/>
<path d="M59.7654 17.3537C57.7186 17.3537 56.0463 18.7819 56.0463 20.7448C56.0463 22.6997 57.7186 24.1359 59.7654 24.1359C61.8123 24.1359 63.4846 22.6997 63.4846 20.7448C63.4846 18.7819 61.8123 17.3537 59.7654 17.3537ZM59.7654 22.8034C58.6419 22.8034 57.6751 21.9576 57.6751 20.7448C57.6751 19.524 58.6419 18.6862 59.7654 18.6862C60.889 18.6862 61.8558 19.524 61.8558 20.7448C61.8558 21.9576 60.8803 22.8034 59.7654 22.8034ZM51.6478 17.3537C49.6009 17.3537 47.9286 18.7819 47.9286 20.7448C47.9286 22.6997 49.6009 24.1359 51.6478 24.1359C53.6946 24.1359 55.3669 22.6997 55.3669 20.7448C55.3669 18.7819 53.6946 17.3537 51.6478 17.3537ZM51.6478 22.8034C50.5242 22.8034 49.5574 21.9576 49.5574 20.7448C49.5574 19.524 50.5242 18.6862 51.6478 18.6862C52.7714 18.6862 53.7382 19.524 53.7382 20.7448C53.7382 21.9576 52.7714 22.8034 51.6478 22.8034ZM41.9972 18.3989V19.8352H45.7599C45.6466 20.6411 45.3505 21.2395 44.9063 21.6464C44.3576 22.1491 43.504 22.6997 42.0059 22.6997C39.689 22.6997 37.8774 20.9921 37.8774 18.8697C37.8774 16.7473 39.689 15.0398 42.0059 15.0398C43.2514 15.0398 44.1659 15.4866 44.8366 16.0691L45.9428 15.0557C45.0021 14.2339 43.7566 13.6035 41.9972 13.6035C38.8267 13.6035 36.1615 15.9653 36.1615 18.8777C36.1615 21.7821 38.8267 24.1519 41.9972 24.1519C43.713 24.1519 45.0021 23.6412 46.0124 22.6757C47.0489 21.7262 47.3712 20.3857 47.3712 19.3086C47.3712 18.9734 47.3451 18.6623 47.2841 18.4069H41.9972V18.3989ZM81.4619 19.516C81.1571 18.758 80.2164 17.3537 78.2915 17.3537C76.384 17.3537 74.7988 18.7261 74.7988 20.7448C74.7988 22.6438 76.3666 24.1359 78.4744 24.1359C80.1728 24.1359 81.1571 23.1864 81.5577 22.6358L80.2948 21.8619C79.8767 22.4284 79.3018 22.8034 78.4744 22.8034C77.647 22.8034 77.0547 22.4523 76.6801 21.7741L81.6361 19.899L81.4619 19.516ZM76.4101 20.649C76.3666 19.3405 77.5163 18.6702 78.3438 18.6702C78.9883 18.6702 79.537 18.9655 79.7199 19.3884L76.4101 20.649ZM72.3861 23.9364H74.0149V13.9626H72.3861V23.9364ZM69.7209 18.1117H69.6599C69.2941 17.7127 68.5973 17.3537 67.7089 17.3537C65.8537 17.3537 64.1553 18.8458 64.1553 20.7608C64.1553 22.6598 65.8537 24.1439 67.7089 24.1439C68.5886 24.1439 69.2941 23.7848 69.6599 23.3699H69.7122V23.8566C69.7122 25.1572 68.9544 25.8514 67.735 25.8514C66.7421 25.8514 66.1237 25.1971 65.8711 24.6466L64.4514 25.1891C64.8608 26.0908 65.9408 27.1919 67.735 27.1919C69.6425 27.1919 71.2539 26.1626 71.2539 23.6572V17.5611H69.7122L69.7209 18.1117ZM67.8483 22.8034C66.7247 22.8034 65.784 21.9417 65.784 20.7608C65.784 19.5639 66.7247 18.6942 67.8483 18.6942C68.9544 18.6942 69.8254 19.5719 69.8254 20.7608C69.8341 21.9417 68.9631 22.8034 67.8483 22.8034ZM89.0918 13.9626H85.1985V23.9364H86.8272V20.1543H89.1005C90.9035 20.1543 92.6716 18.9575 92.6716 17.0585C92.6716 15.1594 90.8861 13.9626 89.0918 13.9626ZM89.1267 18.766H86.8185V15.343H89.1267C90.346 15.343 91.0341 16.2685 91.0341 17.0505C91.0341 17.8324 90.346 18.766 89.1267 18.766ZM99.1779 17.3377C98.0021 17.3377 96.7827 17.8165 96.2775 18.8617L97.7234 19.4123C98.0282 18.8617 98.6031 18.6782 99.2041 18.6782C100.04 18.6782 100.902 19.141 100.911 19.9628V20.0666C100.615 19.915 99.988 19.6836 99.2128 19.6836C97.6537 19.6836 96.0772 20.4655 96.0772 21.9257C96.0772 23.2582 97.3488 24.1199 98.7773 24.1199C99.866 24.1199 100.476 23.6731 100.85 23.1465H100.903V23.9205H102.47V20.0985C102.479 18.3271 101.033 17.3377 99.1779 17.3377ZM98.9776 22.8034C98.4463 22.8034 97.7059 22.556 97.7059 21.9576C97.7059 21.1916 98.6292 20.8964 99.4305 20.8964C100.145 20.8964 100.484 21.04 100.911 21.2315C100.789 22.1491 99.9183 22.8034 98.9776 22.8034ZM108.193 17.5532L106.329 21.8778H106.277L104.343 17.5532H102.592L105.493 23.6013L103.838 26.9605H105.536L110.004 17.5532H108.193ZM93.56 23.9364H95.1888V13.9626H93.56V23.9364Z" fill="white"/>
<path d="M9.50906 6.01728C9.25647 6.26463 9.1084 6.64761 9.1084 7.13432V24.7836C9.1084 25.2783 9.25647 25.6613 9.50906 25.9007L9.57003 25.9565L20.3617 16.0787V15.959V15.8393L9.57003 5.96143L9.50906 6.01728Z" fill="url(#paint0_linear)"/>
<path d="M23.9588 19.3735L20.3616 16.0779V15.9583V15.8386L23.9588 12.543L24.0372 12.5829L28.2964 14.8012C29.5158 15.4316 29.5158 16.4689 28.2964 17.1073L24.0372 19.3257L23.9588 19.3735Z" fill="url(#paint1_linear)"/>
<path d="M24.0372 19.3249L20.3616 15.9575L9.50903 25.9C9.90969 26.291 10.5716 26.3389 11.3207 25.9479L24.0372 19.3249Z" fill="url(#paint2_linear)"/>
<path d="M24.037 12.5905L11.3119 5.96813C10.5628 5.57717 9.9009 5.62505 9.50024 6.01601L20.3614 15.9575L24.037 12.5905Z" fill="url(#paint3_linear)"/>
<path opacity="0.2" d="M23.9585 19.2529L11.3115 25.8372C10.606 26.2043 9.97018 26.1804 9.56951 25.8452L9.50854 25.901L9.56951 25.9569C9.97889 26.2921 10.606 26.316 11.3115 25.9489L24.0369 19.3248L23.9585 19.2529Z" fill="black"/>
<path opacity="0.12" d="M9.50911 25.7874C9.25656 25.5399 9.10852 25.1566 9.10852 24.6694V24.7892C9.10852 25.2843 9.25656 25.6677 9.50911 25.9072L9.57007 25.8513L9.50911 25.7874Z" fill="black"/>
<path opacity="0.12" d="M28.2963 16.9948L23.9501 19.2529L24.0285 19.3247L28.2876 17.1065C28.8973 16.7873 29.2021 16.3724 29.2021 15.9575C29.1586 16.3325 28.8538 16.7076 28.2963 16.9948Z" fill="black"/>
<path opacity="0.25" d="M11.3119 6.08078L28.2964 14.9213C28.8451 15.2085 29.1587 15.5755 29.2109 15.9585C29.2109 15.5436 28.9061 15.1207 28.2964 14.8096L11.3119 5.96908C10.0925 5.33876 9.09961 5.86536 9.09961 7.14196V7.26164C9.09961 5.97706 10.1013 5.45046 11.3119 6.08078Z" fill="white"/>
<defs>
<linearGradient id="paint0_linear" x1="19.4058" y1="6.9528" x2="6.06656" y2="21.5142" gradientUnits="userSpaceOnUse">
<stop stop-color="#00A0FF"/>
<stop offset="0.00657445" stop-color="#00A1FF"/>
<stop offset="0.2601" stop-color="#00BEFF"/>
<stop offset="0.5122" stop-color="#00D2FF"/>
<stop offset="0.7604" stop-color="#00DFFF"/>
<stop offset="1" stop-color="#00E3FF"/>
</linearGradient>
<linearGradient id="paint1_linear" x1="29.8854" y1="15.9583" x2="8.80993" y2="15.9583" gradientUnits="userSpaceOnUse">
<stop stop-color="#FFE000"/>
<stop offset="0.4087" stop-color="#FFBD00"/>
<stop offset="0.7754" stop-color="#FFA500"/>
<stop offset="1" stop-color="#FF9C00"/>
</linearGradient>
<linearGradient id="paint2_linear" x1="22.0387" y1="17.7885" x2="3.94818" y2="37.5351" gradientUnits="userSpaceOnUse">
<stop stop-color="#FF3A44"/>
<stop offset="1" stop-color="#C31162"/>
</linearGradient>
<linearGradient id="paint3_linear" x1="6.76901" y1="0.143092" x2="14.8464" y2="8.96058" gradientUnits="userSpaceOnUse">
<stop stop-color="#32A071"/>
<stop offset="0.0685" stop-color="#2DA771"/>
<stop offset="0.4762" stop-color="#15CF74"/>
<stop offset="0.8009" stop-color="#06E775"/>
<stop offset="1" stop-color="#00F076"/>
</linearGradient>
</defs>
</svg>
