<svg width="32" height="32" viewBox="0 0 32 32" fill="none" xmlns="http://www.w3.org/2000/svg">
<path d="M26.1413 9.32634C26.04 8.92901 25.752 8.62901 25.4226 8.53701C24.84 8.37301 22 7.99967 16 7.99967C9.99996 7.99967 7.16263 8.37301 6.57463 8.53701C6.24929 8.62767 5.96129 8.92767 5.85863 9.32634C5.71329 9.89167 5.33329 12.261 5.33329 15.9997C5.33329 19.7383 5.71329 22.1063 5.85863 22.6743C5.95996 23.0703 6.24796 23.3703 6.57596 23.461C7.16263 23.6263 9.99996 23.9997 16 23.9997C22 23.9997 24.8386 23.6263 25.4253 23.4623C25.7506 23.3717 26.0386 23.0717 26.1413 22.673C26.2866 22.1077 26.6666 19.733 26.6666 15.9997C26.6666 12.2663 26.2866 9.89301 26.1413 9.32634ZM28.724 8.66367C29.3333 11.0397 29.3333 15.9997 29.3333 15.9997C29.3333 15.9997 29.3333 20.9597 28.724 23.3357C28.3853 24.649 27.3946 25.6823 26.14 26.0317C23.8613 26.6663 16 26.6663 16 26.6663C16 26.6663 8.14263 26.6663 5.85996 26.0317C4.59996 25.677 3.61063 24.645 3.27596 23.3357C2.66663 20.9597 2.66663 15.9997 2.66663 15.9997C2.66663 15.9997 2.66663 11.0397 3.27596 8.66367C3.61463 7.35034 4.60529 6.31701 5.85996 5.96767C8.14263 5.33301 16 5.33301 16 5.33301C16 5.33301 23.8613 5.33301 26.14 5.96767C27.4 6.32234 28.3893 7.35434 28.724 8.66367ZM13.3333 20.6663V11.333L21.3333 15.9997L13.3333 20.6663Z" fill="white"/>
</svg>
