<svg width="32" height="33" viewBox="0 0 32 33" fill="none" xmlns="http://www.w3.org/2000/svg">
<g clip-path="url(#clip0)">
<path d="M12.7996 19.8519H19.1996V10.2417H23.9996L15.9996 2.23315L7.99958 10.2417H12.7996V19.8519ZM30.9404 22.3057C30.6044 21.9469 28.3628 19.546 27.7228 18.9197C27.2743 18.4893 26.6768 18.2494 26.0556 18.2502H23.2444L28.1468 23.0457H22.4764C22.3993 23.0443 22.3232 23.0632 22.2558 23.1006C22.1884 23.138 22.132 23.1926 22.0924 23.2587L20.7868 26.2587H11.2124L9.90678 23.2587C9.86689 23.1928 9.81046 23.1384 9.7431 23.1011C9.67574 23.0637 9.59978 23.0446 9.52278 23.0457H3.85238L8.75318 18.2502H5.94358C5.30838 18.2502 4.70198 18.5049 4.27638 18.9197C3.63638 19.5476 1.39478 21.9485 1.05878 22.3057C0.276379 23.1402 -0.154021 23.8049 0.0507789 24.6266L0.948379 29.5502C1.15318 30.3735 2.05398 31.0494 2.95158 31.0494H29.0508C29.9484 31.0494 30.8492 30.3735 31.054 29.5502L31.9516 24.6266C32.1532 23.8049 31.7244 23.1402 30.9404 22.3057Z" fill="white"/>
</g>
<defs>
<clipPath id="clip0">
<rect width="32" height="32.0341" fill="white" transform="translate(0 0.631348)"/>
</clipPath>
</defs>
</svg>
