<svg width="255" height="255" viewBox="0 0 255 255" fill="none" xmlns="http://www.w3.org/2000/svg">
<g filter="url(#filter0_d)">
<circle cx="122.5" cy="122.5" r="112.5" fill="white"/>
<circle cx="122.5" cy="122.5" r="111.5" stroke="#0061A6" stroke-width="2"/>
</g>
<path d="M187.447 110.817H158.419C157.012 110.817 155.866 111.966 155.866 113.377V133.504C155.866 134.914 157.012 136.064 158.419 136.064H187.447C188.856 136.064 190 134.914 190 133.504V113.377C190 111.965 188.856 110.817 187.447 110.817ZM187.423 112.842L173.788 125.933C173.317 126.385 172.551 126.385 172.077 125.933L158.442 112.842H187.423ZM187.98 133.191L178.071 123.877L177.388 124.606L187.422 134.038H158.446L168.48 124.606L167.799 123.877L157.888 133.191V113.695L171.39 126.655C171.814 127.064 172.374 127.268 172.935 127.268C173.494 127.268 174.054 127.064 174.48 126.655L187.98 113.695V133.191Z" fill="#0061A6"/>
<path d="M156.889 103.078L178.366 93.0324C178.894 92.7888 179.291 92.3526 179.491 91.8036C179.689 91.2577 179.665 90.6666 179.419 90.1387L172.492 75.2476C172.003 74.1948 170.663 73.697 169.603 74.1933L148.124 84.237C147.598 84.4822 147.2 84.9183 147.001 85.4658C146.803 86.0132 146.83 86.6058 147.073 87.1307L154.001 102.023C154.355 102.787 155.131 103.282 155.972 103.282C156.29 103.282 156.598 103.211 156.889 103.078ZM170.369 75.8552L164.791 90.2395C164.59 90.7569 164.003 91.0321 163.48 90.8531L148.904 85.8899L170.369 75.8552ZM148.931 86.7938L163.208 91.6517C163.679 91.8142 164.182 91.769 164.612 91.569C165.043 91.3675 165.398 91.011 165.58 90.5448L171.044 76.4553L177.569 90.4876L167.345 87.1262L167.081 87.9308L177.581 91.3825L156.137 101.408L160.25 91.1268L159.464 90.8095L155.462 100.825L148.931 86.7938Z" fill="#0061A6"/>
<path d="M170.521 171.274C171.364 171.274 172.136 170.779 172.492 170.013L179.417 155.122C179.924 154.035 179.45 152.734 178.366 152.225L156.889 142.183C155.834 141.69 154.489 142.185 154 143.236L147.073 158.13C146.567 159.221 147.041 160.519 148.124 161.027L169.603 171.069C169.894 171.204 170.201 171.274 170.521 171.274ZM177.587 153.88L163.013 158.845C162.488 159.022 161.902 158.748 161.702 158.229L156.124 143.845L177.587 153.88ZM159.152 155.119L148.927 158.481L155.453 144.448L160.916 158.536C161.096 159.005 161.453 159.362 161.884 159.562C162.311 159.764 162.814 159.806 163.288 159.646L177.565 154.787L171.04 168.818L167.032 158.804L166.249 159.118L170.362 169.401L148.915 159.375L159.413 155.924L159.152 155.119Z" fill="#0061A6"/>
<path d="M63.7195 146.784C66.9745 146.784 69.814 144.984 71.3125 142.326L81.3925 146.581L80.671 155.008C80.524 156.733 81.3145 158.422 82.738 159.421C83.1175 159.684 83.5225 159.888 83.932 160.025L102.515 166.417C103.036 166.596 103.567 166.682 104.093 166.682C105.699 166.682 107.242 165.883 108.156 164.48L111.531 159.303L130.606 167.356C131.624 167.786 132.647 167.998 133.621 167.998C134.808 167.998 135.919 167.681 136.866 167.053C138.585 165.907 139.572 163.841 139.572 161.383L139.553 89.6741C139.552 87.218 138.565 85.1531 136.844 84.007C135.124 82.8595 132.842 82.7527 130.583 83.7032L71.314 108.713C69.814 106.054 66.976 104.255 63.7195 104.255C58.9105 104.255 55 108.178 55 112.998V138.041C55 142.862 58.9105 146.784 63.7195 146.784ZM104.813 162.289C104.599 162.618 104.188 162.764 103.809 162.632L85.213 156.237C85.15 156.216 85.0795 156.178 85.0135 156.134C84.76 155.955 84.6175 155.655 84.6445 155.348L85.2565 148.214L107.79 157.726L104.813 162.289ZM72.4195 112.589L132.128 87.391C133.148 86.9609 134.039 86.9413 134.635 87.3414C135.23 87.7384 135.559 88.5671 135.559 89.6756L135.579 161.383C135.579 162.493 135.25 163.322 134.656 163.719C134.058 164.116 133.174 164.098 132.153 163.666L72.4195 138.452C72.4255 138.315 72.4405 138.18 72.4405 138.043V112.998C72.4405 112.86 72.4255 112.726 72.4195 112.589ZM58.99 112.998C58.99 110.384 61.111 108.256 63.7195 108.256C66.3265 108.256 68.449 110.384 68.449 112.998V138.041C68.449 140.657 66.3265 142.782 63.7195 142.782C61.111 142.782 58.99 140.657 58.99 138.041V112.998Z" fill="#0061A6"/>
<path d="M82.0301 119.923C82.2881 119.923 82.5506 119.873 82.8041 119.766L126.601 101.282C127.618 100.855 128.094 99.6818 127.666 98.6621C127.242 97.6454 126.075 97.1656 125.053 97.5942L81.2546 116.078C80.2391 116.509 79.7621 117.68 80.1881 118.7C80.5106 119.464 81.2501 119.923 82.0301 119.923Z" fill="#0061A6"/>
<defs>
<filter id="filter0_d" x="0" y="0" width="255" height="255" filterUnits="userSpaceOnUse" color-interpolation-filters="sRGB">
<feFlood flood-opacity="0" result="BackgroundImageFix"/>
<feColorMatrix in="SourceAlpha" type="matrix" values="0 0 0 0 0 0 0 0 0 0 0 0 0 0 0 0 0 0 127 0"/>
<feOffset dx="5" dy="5"/>
<feGaussianBlur stdDeviation="7.5"/>
<feColorMatrix type="matrix" values="0 0 0 0 0.0916667 0 0 0 0 0.0916667 0 0 0 0 0.0916667 0 0 0 0.25 0"/>
<feBlend mode="normal" in2="BackgroundImageFix" result="effect1_dropShadow"/>
<feBlend mode="normal" in="SourceGraphic" in2="effect1_dropShadow" result="shape"/>
</filter>
</defs>
</svg>
