<svg width="31" height="20" viewBox="0 0 31 20" fill="none" xmlns="http://www.w3.org/2000/svg">
<path fill-rule="evenodd" clip-rule="evenodd" d="M3.39764 8.31449C3.77222 8.31449 4.15811 8.3992 4.51952 8.57991L15.9454 14.291L27.3694 8.57991C27.9647 8.28236 28.6539 8.23351 29.2852 8.44408C29.9166 8.65465 30.4384 9.1074 30.736 9.70273C31.0335 10.2981 31.0824 10.9872 30.8718 11.6186C30.6612 12.2499 30.2085 12.7718 29.6132 13.0693L17.0654 19.3432C16.7169 19.5178 16.3324 19.6087 15.9426 19.6087C15.5528 19.6087 15.1683 19.5178 14.8198 19.3432L2.27199 13.0693C1.76372 12.818 1.35563 12.4018 1.11434 11.8887C0.873048 11.3756 0.812796 10.7959 0.943417 10.2441C1.07404 9.69238 1.38782 9.2012 1.83355 8.85074C2.27928 8.50028 2.83064 8.31125 3.39764 8.31449Z" fill="white"/>
<path fill-rule="evenodd" clip-rule="evenodd" d="M3.39717 0.158203C3.5854 0.158203 3.77552 0.199614 3.95623 0.289967L15.9449 6.28338L27.9299 0.289967C28.2278 0.141962 28.5723 0.11788 28.8879 0.222982C29.2036 0.328084 29.4648 0.553828 29.6146 0.850909C29.763 1.14901 29.787 1.49381 29.6815 1.80964C29.576 2.12547 29.3495 2.38656 29.0518 2.53561L16.504 8.8095C16.3299 8.89677 16.1378 8.94222 15.9431 8.94222C15.7483 8.94222 15.5562 8.89677 15.3821 8.8095L2.83435 2.53561C2.58348 2.40761 2.38286 2.19909 2.26462 1.94349C2.14638 1.68788 2.11738 1.39997 2.18226 1.12591C2.24714 0.851858 2.40214 0.607516 2.62243 0.432048C2.84272 0.256581 3.11554 0.160147 3.39717 0.158203Z" fill="white"/>
</svg>
