<svg width="255" height="255" viewBox="0 0 255 255" fill="none" xmlns="http://www.w3.org/2000/svg">
<g filter="url(#filter0_d)">
<circle cx="122.5" cy="122.5" r="112.5" fill="white"/>
<circle cx="122.5" cy="122.5" r="111.5" stroke="#0061A6" stroke-width="2"/>
</g>
<path d="M56.9665 190.097H78.811C79.8985 190.097 80.7775 189.214 80.7775 188.125V132.637C80.7775 131.548 79.8985 130.666 78.811 130.666H56.9665C55.8805 130.666 55 131.548 55 132.637V188.125C55 189.212 55.8805 190.097 56.9665 190.097ZM58.933 134.608H76.843V186.153H58.933V134.608Z" fill="#0061A6"/>
<path d="M93.3737 104.382C92.2877 104.382 91.4072 105.265 91.4072 106.354V188.125C91.4072 189.214 92.2877 190.097 93.3737 190.097H115.218C116.306 190.097 117.185 189.214 117.185 188.125V106.353C117.185 105.264 116.306 104.381 115.218 104.381H93.3737V104.382ZM113.252 186.153H95.3402V108.324H113.252V186.153Z" fill="#0061A6"/>
<path d="M151.627 117.524H129.781C128.693 117.524 127.814 118.407 127.814 119.496V188.125C127.814 189.214 128.693 190.097 129.781 190.097H151.625C152.71 190.097 153.592 189.214 153.592 188.125V119.496C153.593 118.407 152.711 117.524 151.627 117.524ZM149.66 186.153H131.749V121.466H149.66V186.153Z" fill="#0061A6"/>
<path d="M188.034 89.7815H166.191C165.104 89.7815 164.225 90.6643 164.225 91.7532V188.125C164.225 189.214 165.104 190.097 166.191 190.097H188.036C189.122 190.097 190.002 189.214 190.002 188.125V91.7517C190.001 90.6643 189.12 89.7815 188.034 89.7815ZM186.068 186.153H168.158V93.7235H186.068V186.153Z" fill="#0061A6"/>
<path d="M177.11 73.0179C182.068 73.0179 186.095 68.9767 186.095 64.009C186.095 59.0412 182.066 55 177.11 55C172.156 55 168.127 59.0428 168.127 64.009C168.127 65.5205 168.505 66.9463 169.163 68.1961L146.521 86.3599C144.952 85.0183 142.924 84.2032 140.704 84.2032C137.539 84.2032 134.756 85.8576 133.157 88.3437L113.117 80.3063C113.221 79.7558 113.282 79.1903 113.282 78.6098C113.282 73.6421 109.25 69.6008 104.297 69.6008C99.3443 69.6008 95.3123 73.6421 95.3123 78.6098C95.3123 80.1213 95.6903 81.5456 96.3488 82.7969L73.7048 100.961C72.1358 99.6192 70.1078 98.804 67.8893 98.804C62.9318 98.804 58.9043 102.845 58.9043 107.813C58.9043 112.781 62.9333 116.822 67.8893 116.822C72.8438 116.822 76.8728 112.781 76.8728 107.813C76.8728 106.301 76.4948 104.876 75.8363 103.624L98.4788 85.4635C100.048 86.8051 102.077 87.6203 104.297 87.6203C107.462 87.6203 110.246 85.9659 111.845 83.4782L131.884 91.5141C131.78 92.0646 131.719 92.6316 131.719 93.2121C131.719 98.1798 135.751 102.221 140.704 102.221C145.657 102.221 149.689 98.1798 149.689 93.2121C149.689 91.6991 149.311 90.2763 148.652 89.0235L171.295 70.8612C172.864 72.2028 174.893 73.0179 177.11 73.0179ZM177.11 58.4156C180.187 58.4156 182.689 60.9243 182.689 64.009C182.689 67.0937 180.187 69.6023 177.11 69.6023C174.035 69.6023 171.533 67.0937 171.533 64.009C171.533 60.9243 174.035 58.4156 177.11 58.4156ZM67.8893 113.406C64.8128 113.406 62.3108 110.898 62.3108 107.813C62.3108 104.73 64.8128 102.22 67.8893 102.22C70.9643 102.22 73.4663 104.728 73.4663 107.813C73.4663 110.898 70.9643 113.406 67.8893 113.406ZM104.296 84.2032C101.219 84.2032 98.7173 81.6945 98.7173 78.6113C98.7173 75.5266 101.219 73.0179 104.296 73.0179C107.371 73.0179 109.874 75.5266 109.874 78.6113C109.874 81.6945 107.371 84.2032 104.296 84.2032ZM140.704 98.804C137.629 98.804 135.125 96.2953 135.125 93.2121C135.125 90.1289 137.629 87.6203 140.704 87.6203C143.78 87.6203 146.282 90.1289 146.282 93.2121C146.282 96.2953 143.78 98.804 140.704 98.804Z" fill="#0061A6"/>
<defs>
<filter id="filter0_d" x="0" y="0" width="255" height="255" filterUnits="userSpaceOnUse" color-interpolation-filters="sRGB">
<feFlood flood-opacity="0" result="BackgroundImageFix"/>
<feColorMatrix in="SourceAlpha" type="matrix" values="0 0 0 0 0 0 0 0 0 0 0 0 0 0 0 0 0 0 127 0"/>
<feOffset dx="5" dy="5"/>
<feGaussianBlur stdDeviation="7.5"/>
<feColorMatrix type="matrix" values="0 0 0 0 0.0916667 0 0 0 0 0.0916667 0 0 0 0 0.0916667 0 0 0 0.25 0"/>
<feBlend mode="normal" in2="BackgroundImageFix" result="effect1_dropShadow"/>
<feBlend mode="normal" in="SourceGraphic" in2="effect1_dropShadow" result="shape"/>
</filter>
</defs>
</svg>
