<svg width="255" height="255" viewBox="0 0 255 255" fill="none" xmlns="http://www.w3.org/2000/svg">
<g filter="url(#filter0_d)">
<circle cx="122.5" cy="122.5" r="112.5" fill="white"/>
<circle cx="122.5" cy="122.5" r="111.5" stroke="#0061A6" stroke-width="2"/>
</g>
<path d="M103.176 105.376C103.176 116.06 111.844 124.752 122.5 124.752C133.156 124.752 141.825 116.06 141.825 105.376C141.825 94.6916 133.156 86 122.5 86C111.844 86 103.176 94.6916 103.176 105.376ZM137.877 105.376C137.877 113.878 130.978 120.794 122.5 120.794C114.022 120.794 107.124 113.878 107.124 105.376C107.124 96.8739 114.022 89.9585 122.5 89.9585C130.978 89.9585 137.877 96.8739 137.877 105.376Z" fill="#0061A6"/>
<path d="M87.5288 157.52C88.6928 158.807 90.3728 159.546 92.1368 159.546H152.863C154.627 159.546 156.305 158.807 157.471 157.52C158.591 156.279 159.119 154.686 158.956 153.029C157.529 138.497 148.991 129.396 132.859 125.206C131.806 124.934 130.727 125.569 130.453 126.626C130.18 127.685 130.814 128.763 131.869 129.039C146.605 132.865 153.746 140.383 155.027 153.417C155.093 154.097 154.801 154.578 154.546 154.861C154.129 155.322 153.514 155.587 152.863 155.587H92.1368C91.4843 155.587 90.8708 155.321 90.4538 154.861C90.1988 154.578 89.9063 154.095 89.9723 153.418C91.2533 140.383 98.3948 132.865 113.131 129.039C114.187 128.765 114.82 127.685 114.547 126.626C114.272 125.569 113.195 124.936 112.141 125.206C96.0068 129.396 87.4703 138.497 86.0438 153.03C85.8803 154.685 86.4083 156.279 87.5288 157.52Z" fill="#0061A6"/>
<path d="M177.129 104.507C177.129 96.3655 170.524 89.7449 162.406 89.7449C154.288 89.7449 147.684 96.367 147.684 104.507C147.684 112.646 154.288 119.268 162.406 119.268C170.524 119.268 177.129 112.646 177.129 104.507ZM151.104 104.507C151.104 98.2575 156.174 93.174 162.406 93.174C168.639 93.174 173.709 98.2575 173.709 104.507C173.709 110.754 168.639 115.839 162.406 115.839C156.174 115.839 151.104 110.754 151.104 104.507Z" fill="#0061A6"/>
<path d="M185.178 145.363C186.566 145.363 187.889 144.782 188.804 143.767C189.689 142.79 190.106 141.532 189.977 140.224C188.895 129.214 182.436 122.325 170.232 119.154C169.322 118.914 168.384 119.467 168.147 120.384C167.91 121.302 168.459 122.237 169.374 122.477C180.318 125.319 185.622 130.896 186.572 140.559C186.612 140.983 186.431 141.286 186.269 141.463C185.999 141.761 185.601 141.932 185.177 141.932H159.938C158.994 141.932 158.228 142.701 158.228 143.647C158.228 144.593 158.994 145.361 159.938 145.361H185.178V145.363Z" fill="#0061A6"/>
<path d="M154.579 119.154C149.641 120.437 145.766 122.245 142.732 124.678C141.994 125.271 141.874 126.349 142.463 127.089C142.802 127.512 143.299 127.731 143.801 127.731C144.176 127.731 144.553 127.61 144.868 127.355C147.518 125.229 150.976 123.633 155.435 122.475C156.35 122.236 156.901 121.3 156.662 120.383C156.427 119.468 155.486 118.915 154.579 119.154Z" fill="#0061A6"/>
<path d="M82.5936 119.268C90.7116 119.268 97.3161 112.646 97.3161 104.507C97.3161 96.3655 90.7116 89.7449 82.5936 89.7449C74.4756 89.7449 67.8711 96.367 67.8711 104.507C67.8711 112.646 74.4756 119.268 82.5936 119.268ZM82.5936 93.174C88.8261 93.174 93.8961 98.2575 93.8961 104.507C93.8961 110.754 88.8261 115.839 82.5936 115.839C76.3611 115.839 71.2911 110.756 71.2911 104.507C71.2911 98.2575 76.3626 93.174 82.5936 93.174Z" fill="#0061A6"/>
<path d="M59.8226 145.363H85.0631C86.0066 145.363 86.7731 144.594 86.7731 143.648C86.7731 142.702 86.0066 141.934 85.0631 141.934H59.8226C59.3981 141.934 59.0006 141.762 58.7306 141.464C58.5701 141.287 58.3871 140.985 58.4276 140.561C59.3771 130.896 64.6796 125.319 75.6251 122.478C76.5401 122.239 77.0891 121.303 76.8521 120.386C76.6151 119.468 75.6761 118.915 74.7671 119.156C62.5631 122.326 56.1041 129.216 55.0226 140.225C54.8951 141.534 55.3106 142.791 56.1956 143.769C57.1121 144.782 58.4351 145.363 59.8226 145.363Z" fill="#0061A6"/>
<path d="M89.5648 122.476C94.0258 123.635 97.4818 125.23 100.132 127.357C100.447 127.611 100.824 127.733 101.199 127.733C101.7 127.733 102.198 127.513 102.537 127.091C103.126 126.351 103.006 125.272 102.268 124.68C99.2338 122.245 95.3593 120.437 90.4213 119.156C89.5063 118.915 88.5733 119.468 88.3363 120.386C88.0993 121.302 88.6498 122.239 89.5648 122.476Z" fill="#0061A6"/>
<defs>
<filter id="filter0_d" x="0" y="0" width="255" height="255" filterUnits="userSpaceOnUse" color-interpolation-filters="sRGB">
<feFlood flood-opacity="0" result="BackgroundImageFix"/>
<feColorMatrix in="SourceAlpha" type="matrix" values="0 0 0 0 0 0 0 0 0 0 0 0 0 0 0 0 0 0 127 0"/>
<feOffset dx="5" dy="5"/>
<feGaussianBlur stdDeviation="7.5"/>
<feColorMatrix type="matrix" values="0 0 0 0 0.0916667 0 0 0 0 0.0916667 0 0 0 0 0.0916667 0 0 0 0.25 0"/>
<feBlend mode="normal" in2="BackgroundImageFix" result="effect1_dropShadow"/>
<feBlend mode="normal" in="SourceGraphic" in2="effect1_dropShadow" result="shape"/>
</filter>
</defs>
</svg>
